<svg width="128" height="128" viewBox="0 0 128 128" xmlns="http://www.w3.org/2000/svg">
  <defs>
    <linearGradient id="bg" x1="0" y1="0" x2="1" y2="1">
      <stop offset="0%" stop-color="#0ea5e9"/>
      <stop offset="100%" stop-color="#6366f1"/>
    </linearGradient>
  </defs>
  <rect x="12" y="12" width="104" height="104" rx="28" fill="#020617"/>
  <rect x="18" y="18" width="92" height="92" rx="24" fill="url(#bg)"/>
  <rect x="26" y="26" width="76" height="76" rx="20" fill="#020617"/>
  <!-- 3 x 4 key grid -->
  <g fill="#e5e7eb">
    <rect x="32" y="32" width="16" height="16" rx="4"/>
    <rect x="56" y="32" width="16" height="16" rx="4"/>
    <rect x="80" y="32" width="16" height="16" rx="4"/>

    <rect x="32" y="52" width="16" height="16" rx="4"/>
    <rect x="56" y="52" width="16" height="16" rx="4"/>
    <rect x="80" y="52" width="16" height="16" rx="4"/>

    <rect x="32" y="72" width="16" height="16" rx="4"/>
    <rect x="56" y="72" width="16" height="16" rx="4"/>
    <rect x="80" y="72" width="16" height="16" rx="4"/>
  </g>
</svg>
